<svg width="222" height="92" viewBox="0 0 222 92" fill="none" xmlns="http://www.w3.org/2000/svg">
<g clip-path="url(#clip0_13_5687)">
<path d="M167.197 15.5679C172.744 11.4893 181.851 14.5026 181.851 24.3159C184.517 18.8092 196.171 20.1426 195.571 29.3692C199.184 26.9826 204.171 29.1426 204.011 34.2492C208.904 31.6226 217.891 37.0226 215.932 44.9946C213.277 44.1292 210.144 44.5826 207.571 46.7026C206.011 40.6359 199.611 38.7559 194.011 39.1425C189.652 39.4479 185.957 42.7426 184.557 46.1959C182.117 44.6613 178.904 44.3279 175.344 45.1425C169.237 46.5292 165.677 50.3159 164.904 55.5826C162.171 50.4759 154.677 52.6359 153.784 57.3692C151.851 50.4759 145.011 48.4759 140.344 48.9826C136.331 49.4092 131.184 51.6493 129.664 57.5293C126.344 54.3413 120.971 51.9945 115.117 52.4759C110.717 52.8359 106.637 55.1025 104.144 58.4479C103.477 52.5679 92.0908 50.3559 87.8254 55.8759C85.7708 53.4759 82.3041 51.6226 78.5174 51.3026C74.7308 50.9946 69.6641 51.9692 66.7441 55.4226C65.9174 49.9426 58.3974 46.5679 53.1707 48.5679C51.5307 42.3279 39.1308 37.8092 33.3441 48.0359C32.6774 41.8092 27.7841 39.3692 23.3441 39.3692C16.6641 39.3692 13.1174 44.4759 12.9041 47.5826C11.3041 46.6892 9.51745 46.4759 7.81078 46.8092C5.65211 38.9292 14.9441 32.8879 20.2374 36.4759C18.9041 28.4759 28.6774 25.1425 33.1841 30.4759C31.3574 23.3159 38.8255 18.2626 44.6241 20.3959C46.6521 12.9946 59.0508 8.66124 65.3441 16.9159C66.2374 11.5826 71.4374 8.08924 77.8508 8.98257C80.8374 9.39591 83.1841 10.8879 84.6908 12.7559C86.9041 6.72921 96.2654 5.46254 99.3441 10.8092C101.277 0.049202 119.637 -4.88544 127.011 6.50256C129.464 5.26256 132.531 4.9012 136.011 5.8092C141.571 7.26254 144.517 11.9692 144.904 15.5826C148.291 5.80924 164.144 7.58259 167.184 15.5679H167.197Z" fill="#D87639"/>
<path d="M33.344 48.0359C39.1307 37.8092 51.5306 42.3279 53.1706 48.5679C58.3973 46.5679 65.9174 49.9426 66.744 55.4226C69.664 51.9692 74.7307 50.9946 78.5173 51.3026C82.304 51.6226 85.7707 53.4759 87.8253 55.8759C92.0907 50.3559 103.477 52.5679 104.144 58.4479C106.637 55.1025 110.717 52.8359 115.117 52.4759C120.971 51.9945 126.344 54.3413 129.664 57.5293C131.184 51.6493 136.331 49.4092 140.344 48.9826C145.011 48.4759 151.851 50.4759 153.784 57.3692C154.677 52.6359 162.171 50.4759 164.904 55.5826C165.677 50.3159 169.237 46.5292 175.344 45.1425C178.904 44.3279 182.117 44.6613 184.557 46.1959C185.892 42.9039 189.321 39.7866 193.415 39.2346C190.04 35.9693 183.727 36.4399 181.851 40.3159C181.851 30.5026 172.744 27.4893 167.197 31.5679H167.184C164.144 23.5826 148.291 21.8092 144.904 31.5826C144.517 27.9692 141.571 23.2625 136.011 21.8092C132.531 20.9012 129.464 21.2626 127.011 22.5026C119.637 11.1146 101.277 16.0492 99.344 26.8092C96.2653 21.4625 86.904 22.7292 84.6907 28.7559C83.184 26.8879 80.8373 25.3959 77.8507 24.9826C71.4373 24.0892 66.2374 27.5826 65.344 32.9159C59.0507 24.6612 46.652 28.9946 44.624 36.3959C38.8254 34.2626 31.3573 39.3159 33.184 46.4759L33.016 46.3079C33.16 46.8519 33.2774 47.4199 33.344 48.0359Z" fill="#B74F2F"/>
<path d="M192.23 49.5867C192.23 60.8147 158.652 69.92 117.23 69.92C75.8105 69.92 42.2305 60.8147 42.2305 49.5867C42.2305 38.3587 75.8105 29.2534 117.23 29.2534C158.652 29.2534 192.23 38.3587 192.23 49.5867Z" fill="#612D26"/>
<path d="M215.932 44.9946C219.411 46.1146 222.104 49.4759 221.784 54.2493C221.291 61.7959 216.331 64.0493 211.224 63.3159C211.224 64.6746 210.917 66.1293 210.237 67.5826C207.879 72.6893 199.571 74.7026 191.571 71.1426C189.599 81.7426 175.571 82.328 170.117 78.9013C167.371 85.1293 158.265 86.9159 153.397 82.9559C151.304 89.1559 140.104 90.3959 136.171 84.1426C132.517 89.4759 126.291 92.1426 116.171 91.1426C110.599 90.5826 107.171 88.7293 105.144 86.4359C96.4507 94.7159 81.7974 89.3026 79.504 82.1426C77.184 85.3026 71.8508 87.3026 65.3441 86.1426C61.7041 85.4892 58.0374 83.0226 56.3841 79.4359C51.0774 85.8093 38.1174 82.5679 37.1841 74.8092C30.9574 77.0892 19.5041 76.4759 15.8507 70.9826C14.5707 69.0626 13.8374 67.1959 13.5307 65.4359C5.47741 66.0493 0.304088 62.4626 0.0107543 56.4759C-0.229246 51.6226 3.58409 47.5959 7.81075 46.8092C9.51742 46.4759 11.304 46.6893 12.904 47.5826C13.1174 44.4759 16.6641 39.3693 23.3441 39.3693C27.7841 39.3693 32.6774 41.8093 33.3441 48.0359C39.1308 37.8093 51.5307 42.328 53.1707 48.568C58.3974 46.568 65.9174 49.9426 66.7441 55.4226C69.6641 51.9693 74.7307 50.9946 78.5174 51.3026C82.3041 51.6226 85.7707 53.4759 87.8254 55.8759C92.0907 50.3559 103.477 52.5679 104.144 58.4479C106.637 55.1026 110.717 52.8359 115.117 52.4759C120.971 51.9946 126.344 54.3413 129.664 57.5293C131.184 51.6493 136.331 49.4093 140.344 48.9826C145.011 48.4759 151.851 50.4759 153.784 57.3693C154.677 52.6359 162.171 50.4759 164.904 55.5826C165.677 50.3159 169.237 46.5292 175.344 45.1426C178.904 44.3279 182.117 44.6613 184.557 46.196C185.957 42.7426 189.652 39.4479 194.011 39.1426C199.611 38.7559 206.011 40.6359 207.571 46.7026C210.144 44.5826 213.277 44.1293 215.932 44.9946Z" fill="#E88D3A"/>
<path d="M216.549 45.2533C215.979 52.2239 211.319 54.3173 206.513 53.6279C206.513 54.9239 206.221 56.3093 205.575 57.6933C203.325 62.56 195.408 64.4799 187.784 61.0866C185.903 71.1893 172.535 71.7479 167.337 68.4826C164.719 74.4173 156.043 76.1199 151.403 72.3439C149.407 78.2533 138.735 79.4359 134.985 73.4759C131.501 78.5586 125.568 81.1012 115.924 80.1479C110.612 79.6132 107.345 77.8466 105.415 75.6613C97.1293 83.5519 83.1626 78.3933 80.9786 71.5706C78.7679 74.5813 73.6839 76.4879 67.4839 75.3813C64.0133 74.7599 60.5186 72.4093 58.944 68.9906C53.8853 75.064 41.5359 71.9772 40.6453 64.5812C34.7106 66.7533 23.7946 66.1693 20.3133 60.9333C19.0933 59.1039 18.3933 57.3253 18.1026 55.6493C10.6973 56.212 5.8613 53.0453 5.2773 47.6973C2.18396 49.3026 -0.178703 52.6252 0.0106299 56.4759C0.303963 62.4626 5.47728 66.0493 13.5306 65.4359C13.8373 67.1959 14.5706 69.0626 15.8506 70.9826C19.5039 76.4759 30.9573 77.0892 37.1839 74.8092C38.1173 82.5679 51.0773 85.8093 56.3839 79.4359C58.0373 83.0226 61.704 85.4892 65.344 86.1426C71.8506 87.3026 77.1839 85.3026 79.5039 82.1426C81.7973 89.3026 96.4506 94.7159 105.144 86.4359C107.171 88.7293 110.599 90.5826 116.171 91.1426C126.291 92.1426 132.517 89.4759 136.171 84.1426C140.104 90.3959 151.304 89.1559 153.397 82.9559C158.265 86.9159 167.371 85.1293 170.117 78.9013C175.571 82.328 189.599 81.7426 191.571 71.1426C199.571 74.7026 207.879 72.6893 210.237 67.5826C210.917 66.1293 211.224 64.6746 211.224 63.316C216.331 64.0493 221.291 61.796 221.784 54.2493C222.085 49.7693 219.719 46.5573 216.549 45.2533Z" fill="#D87639"/>
<path d="M29.8037 49.5453L29.8277 49.5627L29.8837 49.6027L29.8037 49.5453Z" fill="#F1AC56"/>
<path d="M30.3279 49.9495C30.1612 49.8215 29.9932 49.6921 29.8279 49.5628C29.2892 49.0815 28.6478 48.7628 27.9732 48.6321C28.2225 48.0001 28.3532 47.2588 28.2719 46.5868C28.0705 44.9014 27.4572 43.7948 26.0732 42.7841C24.9918 41.9948 23.5025 42.0814 22.2665 42.2761C21.1839 42.4481 20.1492 43.2374 19.3758 43.9588C17.5532 45.6574 16.4798 48.5628 17.8345 50.8575C18.9225 52.6961 21.3025 53.4068 23.3425 52.9708C23.2879 53.5615 23.3532 54.1588 23.5919 54.7348C23.9385 55.5708 24.0652 55.7935 24.6439 56.5108C25.1879 57.1855 26.1919 57.4561 27.0106 57.4908C27.2759 57.5015 27.9319 57.6814 27.0959 57.4614C28.6199 57.8628 30.1612 57.2095 30.9839 55.8801C31.5452 54.9721 31.5279 53.9654 31.5639 52.9481C31.5905 52.2041 31.3945 51.3908 30.9919 50.7614C30.8252 50.4401 30.6025 50.1695 30.3279 49.9495Z" fill="#F1AC56"/>
<path d="M55.1814 57.7506L54.9201 57.5573C54.5681 57.1333 54.1374 56.7839 53.6401 56.5452C53.2147 55.2319 52.3428 54.0919 51.0601 53.2892C50.2441 52.7786 49.1308 52.5079 48.1148 52.6026C48.1388 52.3506 48.1588 52.0972 48.1414 51.8532C48.0401 50.4172 47.5348 49.2613 46.5814 48.1853C45.0081 46.4106 41.9455 46.5106 40.3548 48.1546C39.1841 49.3626 39.0481 50.9892 39.6481 52.3146C39.3721 53.4826 39.7974 54.7653 40.6001 55.6493C41.2894 56.4119 42.5348 56.7639 43.5481 56.6972C43.0308 57.9066 42.9267 59.3213 43.2761 60.5386C43.9681 62.9359 46.1561 63.9159 48.3694 63.7919C49.1774 63.9266 50.0135 63.9359 50.8881 63.9146L51.0161 63.9693H51.0241C52.4175 64.5426 53.9708 64.412 55.1814 63.2013C56.5468 61.836 56.8228 59.0679 55.1814 57.7506Z" fill="#F1AC56"/>
<path d="M74.7413 56.3759C73.4346 56.6759 72.1173 57.2959 71.052 58.1746C70.728 57.9666 70.376 57.7919 69.98 57.6306C71.556 58.2732 70.6053 57.8546 70.2199 57.6612C69.2213 57.1612 68.5386 57.0132 67.4373 56.8972C66.5919 56.8092 65.5346 57.1213 64.8213 57.5626C63.972 58.0893 63.0173 59.0559 62.8679 60.0759C62.7053 61.1825 62.704 61.3559 62.8693 62.4599C63.0626 63.7639 64.4119 64.8706 65.6066 65.1986C65.9839 65.3026 66.3853 65.3386 66.788 65.3213L66.936 65.3759C67.8026 65.6025 68.6026 65.4985 69.3933 65.2479C69.664 65.7839 69.9973 66.2866 70.4119 66.7239C70.9146 67.9133 71.8973 68.9252 73.3626 69.4106C75.988 70.2799 79.3253 69.8106 81.5226 68.1719C84.8373 65.7039 86.048 61.4132 83.1053 58.1145C81.148 55.9212 77.396 55.7665 74.7413 56.3759Z" fill="#F1AC56"/>
<path d="M58.6787 51.8855C57.1467 51.8855 55.8667 53.1642 55.8667 54.6989C55.8667 56.2322 57.1467 57.5109 58.6787 57.5109C60.212 57.5109 61.492 56.2322 61.492 54.6989C61.492 53.1642 60.212 51.8855 58.6787 51.8855Z" fill="#F1AC56"/>
<path d="M131.567 65.924C130.176 65.924 129.015 67.0839 129.015 68.4759C129.015 69.8679 130.176 71.028 131.567 71.028C132.957 71.028 134.119 69.8679 134.119 68.4759C134.119 67.0839 132.957 65.924 131.567 65.924Z" fill="#F1AC56"/>
<path d="M33.537 57.9506L33.4384 58.024C32.3797 58.32 31.697 59.7333 32.669 60.7066C33.645 61.6826 35.0664 60.9933 35.3571 59.9306L35.425 59.8386C36.233 58.7453 34.629 57.1399 33.537 57.9506Z" fill="#F1AC56"/>
<path d="M99.4637 61.8493C98.4357 61.3933 97.6544 61.1386 96.4984 61.1119C95.4557 61.0893 94.389 61.516 93.489 61.9826C91.0344 63.2533 89.7931 66.6386 91.3291 69.0466C91.7984 69.7813 92.433 70.36 93.1757 70.732C93.7664 71.3653 94.5277 71.836 95.3691 72.016C96.5944 72.276 97.6597 72.0653 98.7771 71.5133L98.965 71.392C99.8237 70.7213 99.9277 70.6466 99.2771 71.164C99.6624 70.9253 100.018 70.6253 100.354 70.3199C101.55 69.2266 102.161 67.9906 102.316 66.3666C102.489 64.5493 101.068 62.56 99.4637 61.8493Z" fill="#F1AC56"/>
<path d="M125.972 61.4011C124.272 59.6438 121.888 58.8237 119.511 58.5744C116.511 58.2637 114.049 59.1171 112.269 61.6411C112.056 61.9424 111.879 62.2518 111.719 62.5651C110.403 61.9678 108.832 61.8797 107.403 62.1277C107.089 62.1824 106.793 62.2824 106.512 62.4117C104.556 63.0997 103.231 65.2571 103.468 67.3131C103.728 69.5691 105.101 71.4664 107.413 71.9797C109.399 72.4197 111.303 71.9117 112.855 70.6277L112.887 70.5944C113.891 71.7011 115.245 72.5344 116.852 72.8904C117.26 72.9824 117.664 73.0278 118.069 73.0518C118.955 73.2158 119.861 73.1717 120.701 72.9171C120.835 72.9277 120.964 72.9411 121.1 72.9477C126.775 73.1877 129.769 65.3264 125.972 61.4011Z" fill="#F1AC56"/>
<path d="M147.533 57.5735C147.505 57.3641 147.467 57.1561 147.4 56.9507C147.043 55.8681 145.977 54.7801 144.724 54.9147C143.361 55.0601 142.179 55.5588 141.444 56.8028C141.045 57.4801 140.953 58.2095 141.052 58.9015C138.825 59.0335 136.981 60.7308 136.911 63.0134C136.852 63.2041 136.801 63.3934 136.765 63.5814C136.432 65.2694 137.22 67.3521 139.116 67.7214C140.339 67.9614 141.421 68.0627 142.648 67.8281C144.907 67.3987 146.269 65.3321 146.356 63.1427C146.38 62.5574 146.237 61.9974 145.995 61.4828C147.015 60.8761 147.691 59.7268 147.625 58.5601L147.636 58.4801C147.625 58.1001 147.504 57.2588 147.533 57.5735Z" fill="#F1AC56"/>
<path d="M189.011 51.492C188.14 51.492 187.335 51.792 186.673 52.28L186.573 52.0253C186.444 51.7506 186.137 50.8933 186.527 52.068C186.337 51.4973 186.057 50.852 185.713 50.3373C184.105 47.9333 181.6 46.9373 178.769 47.3653C180.416 47.1173 178.533 47.328 177.983 47.5133C177.145 47.792 176.389 48.1853 175.759 48.816C174.552 50.0213 174.012 51.9 174.46 53.5546L174.401 53.9026C173.759 53.868 173.067 53.9373 172.587 54.1119C171.431 54.5333 170.703 55.1466 169.975 56.0186C169.56 55.8853 169.131 55.7933 168.677 55.7933C166.571 55.7933 164.783 57.3573 164.409 59.368C163.992 58.9853 163.524 58.6559 163.081 58.4173C161.679 57.6626 160.128 57.4279 158.579 57.8226C156.889 58.2519 155.479 59.98 155.547 61.7573L155.492 61.824C154.905 62.652 154.944 63.8133 155.149 64.7453C155.376 65.7839 156.263 66.6986 157.139 67.2506C158.155 67.8919 159.492 68.1386 160.676 68.0186C162.044 67.8826 163.687 67.5359 164.647 66.4426C165.237 65.7693 165.716 65.0973 165.929 64.208C165.984 63.9773 166.001 63.7613 166.021 63.544C166.763 64.1266 167.679 64.492 168.677 64.492C169.357 64.492 169.995 64.3147 170.573 64.0267C170.804 64.1933 171.048 64.3359 171.307 64.4559C171.72 65.1426 172.508 65.86 173.325 65.992C174.499 66.1853 175.461 66.3959 176.663 66.1559C178.432 65.8026 179.548 64.0893 180.128 62.5213C180.349 61.924 180.421 61.3279 180.385 60.7533C181.22 60.7506 182.045 60.6466 182.741 60.4906C184.027 60.2026 185.273 59.3106 186.12 58.1813C186.852 58.9613 187.879 59.46 189.011 59.46C191.183 59.46 192.995 57.6479 192.995 55.4759C192.995 53.3039 191.183 51.492 189.011 51.492Z" fill="#F1AC56"/>
<path d="M215.932 44.9946C219.411 46.1146 222.104 49.4759 221.784 54.2493C221.291 61.7959 216.331 64.0493 211.224 63.3159C211.224 64.6746 210.917 66.1293 210.237 67.5826C207.879 72.6893 199.571 74.7026 191.571 71.1426C189.599 81.7426 175.571 82.328 170.117 78.9013C167.371 85.1293 158.265 86.9159 153.397 82.9559C151.304 89.1559 140.104 90.3959 136.171 84.1426C132.517 89.4759 126.291 92.1426 116.171 91.1426C110.599 90.5826 107.171 88.7293 105.144 86.4359C96.4507 94.7159 81.7974 89.3026 79.504 82.1426C77.184 85.3026 71.8508 87.3026 65.3441 86.1426C61.7041 85.4892 58.0374 83.0226 56.3841 79.4359C51.0774 85.8093 38.1174 82.5679 37.1841 74.8092C30.9574 77.0892 19.5041 76.4759 15.8507 70.9826C14.5707 69.0626 13.8374 67.1959 13.5307 65.4359C5.47741 66.0493 0.304088 62.4626 0.0107543 56.4759C-0.229246 51.6226 3.58409 47.5959 7.81075 46.8092C9.51742 46.4759 11.304 46.6893 12.904 47.5826C13.1174 44.4759 16.6641 39.3693 23.3441 39.3693C27.7841 39.3693 32.6774 41.8093 33.3441 48.0359C39.1308 37.8093 51.5307 42.328 53.1707 48.568C58.3974 46.568 65.9174 49.9426 66.7441 55.4226C69.6641 51.9693 74.7307 50.9946 78.5174 51.3026C82.3041 51.6226 85.7707 53.4759 87.8254 55.8759C92.0907 50.3559 103.477 52.5679 104.144 58.4479C106.637 55.1026 110.717 52.8359 115.117 52.4759C120.971 51.9946 126.344 54.3413 129.664 57.5293C131.184 51.6493 136.331 49.4093 140.344 48.9826C145.011 48.4759 151.851 50.4759 153.784 57.3693C154.677 52.6359 162.171 50.4759 164.904 55.5826C165.677 50.3159 169.237 46.5292 175.344 45.1426C178.904 44.3279 182.117 44.6613 184.557 46.196C185.957 42.7426 189.652 39.4479 194.011 39.1426C199.611 38.7559 206.011 40.6359 207.571 46.7026C210.144 44.5826 213.277 44.1293 215.932 44.9946Z" fill="#E88D3A"/>
<path d="M216.549 45.2533C215.979 52.2239 211.319 54.3173 206.513 53.6279C206.513 54.9239 206.221 56.3093 205.575 57.6933C203.325 62.56 195.408 64.4799 187.784 61.0866C185.903 71.1893 172.535 71.7479 167.337 68.4826C164.719 74.4173 156.043 76.1199 151.403 72.3439C149.407 78.2533 138.735 79.4359 134.985 73.4759C131.501 78.5586 125.568 81.1012 115.924 80.1479C110.612 79.6132 107.345 77.8466 105.415 75.6613C97.1293 83.5519 83.1626 78.3933 80.9786 71.5706C78.7679 74.5813 73.6839 76.4879 67.4839 75.3813C64.0133 74.7599 60.5186 72.4093 58.944 68.9906C53.8853 75.064 41.5359 71.9772 40.6453 64.5812C34.7106 66.7533 23.7946 66.1693 20.3133 60.9333C19.0933 59.1039 18.3933 57.3253 18.1026 55.6493C10.6973 56.212 5.8613 53.0453 5.2773 47.6973C2.18396 49.3026 -0.178703 52.6252 0.0106299 56.4759C0.303963 62.4626 5.47728 66.0493 13.5306 65.4359C13.8373 67.1959 14.5706 69.0626 15.8506 70.9826C19.5039 76.4759 30.9573 77.0892 37.1839 74.8092C38.1173 82.5679 51.0773 85.8093 56.3839 79.4359C58.0373 83.0226 61.704 85.4892 65.344 86.1426C71.8506 87.3026 77.1839 85.3026 79.5039 82.1426C81.7973 89.3026 96.4506 94.7159 105.144 86.4359C107.171 88.7293 110.599 90.5826 116.171 91.1426C126.291 92.1426 132.517 89.4759 136.171 84.1426C140.104 90.3959 151.304 89.1559 153.397 82.9559C158.265 86.9159 167.371 85.1293 170.117 78.9013C175.571 82.328 189.599 81.7426 191.571 71.1426C199.571 74.7026 207.879 72.6893 210.237 67.5826C210.917 66.1293 211.224 64.6746 211.224 63.316C216.331 64.0493 221.291 61.796 221.784 54.2493C222.085 49.7693 219.719 46.5573 216.549 45.2533Z" fill="#D87639"/>
<path d="M29.8037 49.5453L29.8277 49.5627L29.8837 49.6027L29.8037 49.5453Z" fill="#F1AC56"/>
<path d="M30.3279 49.9495C30.1612 49.8215 29.9932 49.6921 29.8279 49.5628C29.2892 49.0815 28.6478 48.7628 27.9732 48.6321C28.2225 48.0001 28.3532 47.2588 28.2719 46.5868C28.0705 44.9014 27.4572 43.7948 26.0732 42.7841C24.9918 41.9948 23.5025 42.0814 22.2665 42.2761C21.1839 42.4481 20.1492 43.2374 19.3758 43.9588C17.5532 45.6574 16.4798 48.5628 17.8345 50.8575C18.9225 52.6961 21.3025 53.4068 23.3425 52.9708C23.2879 53.5615 23.3532 54.1588 23.5919 54.7348C23.9385 55.5708 24.0652 55.7935 24.6439 56.5108C25.1879 57.1855 26.1919 57.4561 27.0106 57.4908C27.2759 57.5015 27.9319 57.6814 27.0959 57.4614C28.6199 57.8628 30.1612 57.2095 30.9839 55.8801C31.5452 54.9721 31.5279 53.9654 31.5639 52.9481C31.5905 52.2041 31.3945 51.3908 30.9919 50.7614C30.8252 50.4401 30.6025 50.1695 30.3279 49.9495Z" fill="#F1AC56"/>
<path d="M55.1814 57.7506L54.9201 57.5573C54.5681 57.1333 54.1374 56.7839 53.6401 56.5452C53.2147 55.2319 52.3428 54.0919 51.0601 53.2892C50.2441 52.7786 49.1308 52.5079 48.1148 52.6026C48.1388 52.3506 48.1588 52.0972 48.1414 51.8532C48.0401 50.4172 47.5348 49.2613 46.5814 48.1853C45.0081 46.4106 41.9455 46.5106 40.3548 48.1546C39.1841 49.3626 39.0481 50.9892 39.6481 52.3146C39.3721 53.4826 39.7974 54.7653 40.6001 55.6493C41.2894 56.4119 42.5348 56.7639 43.5481 56.6972C43.0308 57.9066 42.9267 59.3213 43.2761 60.5386C43.9681 62.9359 46.1561 63.9159 48.3694 63.7919C49.1774 63.9266 50.0135 63.9359 50.8881 63.9146L51.0161 63.9693H51.0241C52.4175 64.5426 53.9708 64.412 55.1814 63.2013C56.5468 61.836 56.8228 59.0679 55.1814 57.7506Z" fill="#F1AC56"/>
<path d="M74.7413 56.3759C73.4346 56.6759 72.1173 57.2959 71.052 58.1746C70.728 57.9666 70.376 57.7919 69.98 57.6306C71.556 58.2732 70.6053 57.8546 70.2199 57.6612C69.2213 57.1612 68.5386 57.0132 67.4373 56.8972C66.5919 56.8092 65.5346 57.1213 64.8213 57.5626C63.972 58.0893 63.0173 59.0559 62.8679 60.0759C62.7053 61.1825 62.704 61.3559 62.8693 62.4599C63.0626 63.7639 64.4119 64.8706 65.6066 65.1986C65.9839 65.3026 66.3853 65.3386 66.788 65.3213L66.936 65.3759C67.8026 65.6025 68.6026 65.4985 69.3933 65.2479C69.664 65.7839 69.9973 66.2866 70.4119 66.7239C70.9146 67.9133 71.8973 68.9252 73.3626 69.4106C75.988 70.2799 79.3253 69.8106 81.5226 68.1719C84.8373 65.7039 86.048 61.4132 83.1053 58.1145C81.148 55.9212 77.396 55.7665 74.7413 56.3759Z" fill="#F1AC56"/>
<path d="M58.6787 51.8855C57.1467 51.8855 55.8667 53.1642 55.8667 54.6989C55.8667 56.2322 57.1467 57.5109 58.6787 57.5109C60.212 57.5109 61.492 56.2322 61.492 54.6989C61.492 53.1642 60.212 51.8855 58.6787 51.8855Z" fill="#F1AC56"/>
<path d="M131.567 65.924C130.176 65.924 129.015 67.0839 129.015 68.4759C129.015 69.8679 130.176 71.028 131.567 71.028C132.957 71.028 134.119 69.8679 134.119 68.4759C134.119 67.0839 132.957 65.924 131.567 65.924Z" fill="#F1AC56"/>
<path d="M33.537 57.9506L33.4384 58.024C32.3797 58.32 31.697 59.7333 32.669 60.7066C33.645 61.6826 35.0664 60.9933 35.3571 59.9306L35.425 59.8386C36.233 58.7453 34.629 57.1399 33.537 57.9506Z" fill="#F1AC56"/>
<path d="M99.4637 61.8493C98.4357 61.3933 97.6544 61.1386 96.4984 61.1119C95.4557 61.0893 94.389 61.516 93.489 61.9826C91.0344 63.2533 89.7931 66.6386 91.3291 69.0466C91.7984 69.7813 92.433 70.36 93.1757 70.732C93.7664 71.3653 94.5277 71.836 95.3691 72.016C96.5944 72.276 97.6597 72.0653 98.7771 71.5133L98.965 71.392C99.8237 70.7213 99.9277 70.6466 99.2771 71.164C99.6624 70.9253 100.018 70.6253 100.354 70.3199C101.55 69.2266 102.161 67.9906 102.316 66.3666C102.489 64.5493 101.068 62.56 99.4637 61.8493Z" fill="#F1AC56"/>
<path d="M125.972 61.4011C124.272 59.6438 121.888 58.8237 119.511 58.5744C116.511 58.2637 114.049 59.1171 112.269 61.6411C112.056 61.9424 111.879 62.2518 111.719 62.5651C110.403 61.9678 108.832 61.8797 107.403 62.1277C107.089 62.1824 106.793 62.2824 106.512 62.4117C104.556 63.0997 103.231 65.2571 103.468 67.3131C103.728 69.5691 105.101 71.4664 107.413 71.9797C109.399 72.4197 111.303 71.9117 112.855 70.6277L112.887 70.5944C113.891 71.7011 115.245 72.5344 116.852 72.8904C117.26 72.9824 117.664 73.0278 118.069 73.0518C118.955 73.2158 119.861 73.1717 120.701 72.9171C120.835 72.9277 120.964 72.9411 121.1 72.9477C126.775 73.1877 129.769 65.3264 125.972 61.4011Z" fill="#F1AC56"/>
<path d="M147.533 57.5735C147.505 57.3641 147.467 57.1561 147.4 56.9507C147.043 55.8681 145.977 54.7801 144.724 54.9147C143.361 55.0601 142.179 55.5588 141.444 56.8028C141.045 57.4801 140.953 58.2095 141.052 58.9015C138.825 59.0335 136.981 60.7308 136.911 63.0134C136.852 63.2041 136.801 63.3934 136.765 63.5814C136.432 65.2694 137.22 67.3521 139.116 67.7214C140.339 67.9614 141.421 68.0627 142.648 67.8281C144.907 67.3987 146.269 65.3321 146.356 63.1427C146.38 62.5574 146.237 61.9974 145.995 61.4828C147.015 60.8761 147.691 59.7268 147.625 58.5601L147.636 58.4801C147.625 58.1001 147.504 57.2588 147.533 57.5735Z" fill="#F1AC56"/>
<path d="M189.011 51.492C188.14 51.492 187.335 51.792 186.673 52.28L186.573 52.0253C186.444 51.7506 186.137 50.8933 186.527 52.068C186.337 51.4973 186.057 50.852 185.713 50.3373C184.105 47.9333 181.6 46.9373 178.769 47.3653C180.416 47.1173 178.533 47.328 177.983 47.5133C177.145 47.792 176.389 48.1853 175.759 48.816C174.552 50.0213 174.012 51.9 174.46 53.5546L174.401 53.9026C173.759 53.868 173.067 53.9373 172.587 54.1119C171.431 54.5333 170.703 55.1466 169.975 56.0186C169.56 55.8853 169.131 55.7933 168.677 55.7933C166.571 55.7933 164.783 57.3573 164.409 59.368C163.992 58.9853 163.524 58.6559 163.081 58.4173C161.679 57.6626 160.128 57.4279 158.579 57.8226C156.889 58.2519 155.479 59.98 155.547 61.7573L155.492 61.824C154.905 62.652 154.944 63.8133 155.149 64.7453C155.376 65.7839 156.263 66.6986 157.139 67.2506C158.155 67.8919 159.492 68.1386 160.676 68.0186C162.044 67.8826 163.687 67.5359 164.647 66.4426C165.237 65.7693 165.716 65.0973 165.929 64.208C165.984 63.9773 166.001 63.7613 166.021 63.544C166.763 64.1266 167.679 64.492 168.677 64.492C169.357 64.492 169.995 64.3147 170.573 64.0267C170.804 64.1933 171.048 64.3359 171.307 64.4559C171.72 65.1426 172.508 65.86 173.325 65.992C174.499 66.1853 175.461 66.3959 176.663 66.1559C178.432 65.8026 179.548 64.0893 180.128 62.5213C180.349 61.924 180.421 61.3279 180.385 60.7533C181.22 60.7506 182.045 60.6466 182.741 60.4906C184.027 60.2026 185.273 59.3106 186.12 58.1813C186.852 58.9613 187.879 59.46 189.011 59.46C191.183 59.46 192.995 57.6479 192.995 55.4759C192.995 53.3039 191.183 51.492 189.011 51.492Z" fill="#F1AC56"/>
</g>
<defs>
<clipPath id="clip0_13_5687">
<rect width="221.81" height="91.3497" fill="white"/>
</clipPath>
</defs>
</svg>
